<?xml version="1.0" encoding="utf-8"?>
<!-- Generator: Adobe Illustrator 22.1.0, SVG Export Plug-In . SVG Version: 6.00 Build 0)  -->
<svg version="1.1" id="Layer_1" xmlns="http://www.w3.org/2000/svg" xmlns:xlink="http://www.w3.org/1999/xlink" x="0px" y="0px"
	 viewBox="0 0 512 512" style="enable-background:new 0 0 512 512;" xml:space="preserve">
<style type="text/css">
	.st0{fill:#0075FF;}
</style>
<g id="XMLID_2749_">
	<g id="XMLID_17_">
		<path id="XMLID_848_" class="st0" d="M479.7,129.5c-18.9-19.1-43.5-30.6-70-32.9c-6.1-25.8-20.3-49.2-40.7-66.6
			c-22.7-19.4-51.6-30-81.4-30c-39.9,0-77,18.7-100.6,50.5c-10.4-3.4-21.3-5.1-32.4-5.1c-11.2,0-22.1,1.7-32.6,5.2
			c-5.2,1.7-8.1,7.4-6.4,12.6s7.4,8.1,12.6,6.4c8.5-2.8,17.4-4.2,26.4-4.2c11.2,0,22.1,2.2,32.4,6.4c4.4,1.8,9.6,0.3,12.2-3.8
			c19.6-30.1,52.6-48,88.5-48c51.7,0,95.4,36.9,104,87.8c0.8,4.8,4.9,8.3,9.7,8.3c50,0.7,90.6,41.9,90.6,91.9
			c0,50.7-41.2,91.9-91.9,91.9H389v-57.8c0-11.5-7.4-27.9-42.7-40.5c-24.3-8.7-56.4-13.5-90.3-13.5s-66.1,4.8-90.3,13.5
			c-35.3,12.6-42.7,29-42.7,40.5V300H84.2C48.8,300,20,271.2,20,235.9c0-27.8,17.7-52.3,44.1-60.9c4.7-1.5,7.5-6.2,6.8-11.1
			c-0.7-4.5-1.1-9.1-1.1-13.6c0-8.4,1.2-16.8,3.7-24.7c1.6-5.3-1.4-10.9-6.7-12.5c-5.3-1.6-10.9,1.4-12.5,6.7
			c-3,9.9-4.5,20.1-4.5,30.6c0,2.9,0.1,5.8,0.4,8.7C19.8,172.2,0,202.2,0,235.9C0,282.3,37.8,320,84.2,320H123v138
			c0,11.5,7.4,27.9,42.7,40.5C189.9,507.2,222,512,256,512s66.1-4.8,90.3-13.5c35.3-12.6,42.7-29,42.7-40.5V320h11.1
			c61.7,0,111.9-50.2,111.9-111.9C512,178.5,500.5,150.5,479.7,129.5L479.7,129.5z M369,314.1c0,5.2-7.7,13.9-29.4,21.7
			c-22.2,7.9-51.9,12.3-83.6,12.3s-61.4-4.4-83.6-12.3c-21.7-7.8-29.4-16.5-29.4-21.7V272c5.8,3.7,13.2,7.4,22.7,10.7
			c24.3,8.7,56.4,13.5,90.3,13.5s66.1-4.8,90.3-13.5c9.4-3.4,16.8-7,22.7-10.7V314.1z M143,343.9c5.8,3.7,13.2,7.4,22.7,10.7
			c24.3,8.7,56.4,13.5,90.3,13.5s66.1-4.8,90.3-13.5c9.4-3.4,16.8-7,22.7-10.7v42.1c0,5.2-7.7,13.9-29.4,21.7
			c-22.2,7.9-51.9,12.3-83.6,12.3s-61.4-4.4-83.6-12.3c-21.7-7.8-29.4-16.5-29.4-21.7L143,343.9z M172.4,220.5
			c22.2-7.9,51.9-12.3,83.6-12.3s61.4,4.4,83.6,12.3c21.7,7.8,29.4,16.5,29.4,21.7s-7.7,13.9-29.4,21.7
			c-22.2,7.9-51.9,12.3-83.6,12.3s-61.4-4.4-83.6-12.3c-21.7-7.8-29.4-16.5-29.4-21.7S150.7,228.3,172.4,220.5z M339.6,479.7
			c-22.2,7.9-51.9,12.3-83.6,12.3s-61.4-4.4-83.6-12.3c-21.7-7.8-29.4-16.5-29.4-21.7v-42.1c5.8,3.7,13.2,7.4,22.7,10.7
			c24.3,8.7,56.4,13.5,90.3,13.5s66.1-4.8,90.3-13.5c9.4-3.4,16.8-7,22.7-10.7V458C369,463.2,361.3,471.9,339.6,479.7L339.6,479.7z"
			/>
		<path id="XMLID_893_" class="st0" d="M86.9,93.9c2.6,0,5.2-1.1,7.1-2.9c1.9-1.9,2.9-4.4,2.9-7.1c0-2.6-1.1-5.2-2.9-7.1
			c-1.9-1.9-4.4-2.9-7.1-2.9s-5.2,1.1-7.1,2.9c-1.9,1.9-2.9,4.4-2.9,7.1c0,2.6,1.1,5.2,2.9,7.1C81.7,92.8,84.2,93.9,86.9,93.9z"/>
	</g>
</g>
</svg>
